<svg id="Layer_1" data-name="Layer 1" xmlns="http://www.w3.org/2000/svg" viewBox="0 0 506.88 75"><defs><style>.cls-1,.cls-5{fill:none;}.cls-1,.cls-2,.cls-3,.cls-4,.cls-5,.cls-6{stroke:gray;stroke-miterlimit:10;}.cls-2{fill:#fff;}.cls-4,.cls-5,.cls-6{stroke-width:3px;}.cls-6{fill:#ff7bac;}</style></defs><title>icons_foodProject</title><path class="cls-1" d="M440.38,576.5h39a25.8,25.8,0,0,1,17.57,6.9h0a20.56,20.56,0,0,1,6.57,15.07v42a9,9,0,0,1-9,9H439.62a9,9,0,0,1-9-9.12l.76-55A9,9,0,0,1,440.38,576.5Z" transform="translate(-430.12 -575)"/><line class="cls-2" x1="9.38" y1="22.5" x2="52.38" y2="22.5"/><line class="cls-2" x1="9.38" y1="27.5" x2="42.88" y2="27.5"/><line class="cls-2" x1="9.38" y1="32.5" x2="42.88" y2="32.5"/><line class="cls-2" x1="9.38" y1="37.5" x2="52.38" y2="37.5"/><line class="cls-2" x1="9.38" y1="42.5" x2="50.88" y2="42.5"/><line class="cls-2" x1="9.38" y1="47.5" x2="49.88" y2="47.5"/><line class="cls-2" x1="9.38" y1="52.5" x2="52.38" y2="52.5"/><line class="cls-2" x1="9.38" y1="57.5" x2="52.88" y2="57.5"/><line class="cls-2" x1="9.38" y1="62.5" x2="42.88" y2="62.5"/><path class="cls-1" d="M535,576.5H545a8.54,8.54,0,0,1,6,2.5l22,22a8.54,8.54,0,0,1,2.5,6V618a8.54,8.54,0,0,1-2.5,6l-21,21a8.54,8.54,0,0,1-6,2.5H534a8.54,8.54,0,0,1-6-2.5l-21-21a8.54,8.54,0,0,1-2.5-6V607a8.54,8.54,0,0,1,2.5-6l22-22A8.54,8.54,0,0,1,535,576.5Z" transform="translate(-430.12 -575)"/><path class="cls-1" d="M533.48,612.35v-.43a3.89,3.89,0,0,1,1.06-2.63l3-3.13a3.89,3.89,0,0,1,2.87-1.23h0a3.91,3.91,0,0,1,2.85,1.28l2.7,3a3.87,3.87,0,0,1,1,2.65v.84a3.94,3.94,0,0,1-1.06,2.64l-2.76,2.92a3.89,3.89,0,0,1-2.88,1.23h0a3.91,3.91,0,0,1-2.84-1.28L534.49,615A3.91,3.91,0,0,1,533.48,612.35Z" transform="translate(-430.12 -575)"/><path class="cls-1" d="M601.51,576.5H622.7a13.08,13.08,0,0,1,10.71,5.56l12.7,18.05a13.06,13.06,0,0,1,2.39,7.54V635.4a13.09,13.09,0,0,1-13.1,13.1H588.89a13.09,13.09,0,0,1-13.09-13.39l.62-27.8a13.05,13.05,0,0,1,2.19-7l12-18A13.11,13.11,0,0,1,601.51,576.5Z" transform="translate(-430.12 -575)"/><path class="cls-1" d="M648.5,594.5h8.81a3,3,0,0,1,2.88,2.08l13.62,40.84a3,3,0,0,0,2.88,2.08h31.43a3,3,0,0,0,3-2.31l8.33-33.33a3,3,0,0,0,.09-.73v-5.59a3,3,0,0,0-3-3H668.53a3,3,0,0,0-2.92,3.88l.89,3.12,6,20" transform="translate(-430.12 -575)"/><circle class="cls-3" cx="248.38" cy="68.5" r="2"/><circle class="cls-3" cx="275.38" cy="68.5" r="2"/><path class="cls-1" d="M723.26,577.88l32.39,16.19a1.89,1.89,0,0,0,1.7,0l32.39-16.19a1.91,1.91,0,0,1,2.76,1.71v42.89a1.92,1.92,0,0,1-.85,1.59l-34,22.7a1.9,1.9,0,0,1-2.17,0l-34.14-24.65a1.9,1.9,0,0,1-.79-1.55V579.59A1.91,1.91,0,0,1,723.26,577.88Z" transform="translate(-430.12 -575)"/><line class="cls-1" x1="326.38" y1="35.5" x2="326.38" y2="71.5"/><ellipse class="cls-4" cx="398.38" cy="37" rx="35" ry="35.5"/><ellipse class="cls-5" cx="470.38" cy="37" rx="35" ry="35.5"/><polyline class="cls-5" points="442.38 36.5 460.38 56.5 496.38 19.5"/><line class="cls-6" x1="397.38" y1="27.5" x2="397.38" y2="46.5"/><line class="cls-6" x1="388.38" y1="37.5" x2="407.38" y2="37.5"/></svg>